<svg id="Capa_1" data-name="Capa 1" xmlns="http://www.w3.org/2000/svg" viewBox="0 0 208.62 208.62"><defs><style>.cls-1{fill:#fff;}</style></defs><title>contacto</title><path class="cls-1" d="M556.27,314.91c57.34,0,104.3,47,104.29,104.32s-47,104.3-104.32,104.3-104.31-47-104.3-104.32S498.92,314.9,556.27,314.91ZM460.66,419.22c0,21.4,6.6,40.54,19.31,57.7,2.19,3,4,3.62,7.43,2.15a298.37,298.37,0,0,1,36.89-13c4.8-1.34,5.81-3.74,5.47-8.07-.82-10.52-4.7-20.15-8.81-29.62-3.23-7.42-6.39-15-5.07-22.95s.65-15.8-.27-23.7C513.5,363.49,523.93,348,541.68,343c9.54-2.7,19.07-2.4,28.71-.26,15.85,3.52,30.28,20.56,26.61,40.52-1.06,5.74-2.41,11.74-.94,17.52a27.31,27.31,0,0,1-.22,15.7c-3.59,10.69-7.51,21.27-11.46,31.84a35.84,35.84,0,0,0-2.72,11.53c-.09,3.25,1.06,4.66,4.1,5.56,13.43,4,26.71,8.44,39.69,13.67,3.32,1.34,4.91.73,7-2,15.75-20.88,22.08-44.5,18.66-70.14a95.7,95.7,0,0,0-106.4-82.75C497.25,329.64,460.59,371.11,460.66,419.22Z" transform="translate(-451.94 -314.91)"/></svg>