<svg id="Capa_1" data-name="Capa 1" xmlns="http://www.w3.org/2000/svg" viewBox="0 0 208.7 194.72"><defs><style>.cls-1{fill:#fff;}</style></defs><title>home_Mesa de trabajo 1</title><path class="cls-1" d="M208.7,112c-1.13,2.72-2.45,5.26-5,7a12.14,12.14,0,0,1-14.28-.29,30.53,30.53,0,0,1-2.87-2.58L110.41,40c-4.29-4.29-7.65-4.27-12,.06L97,41.53,22,116.5c-3,3-6.24,5-10.61,4.65a11.55,11.55,0,0,1-10.19-7A11.5,11.5,0,0,1,2.35,102,18.57,18.57,0,0,1,4.51,99.6L82,22.18c11.49-11.48,29.1-12.73,41.71-3a38.68,38.68,0,0,1,3.6,3.29q10.25,10.2,20.45,20.4c.46.46,1,.91,1.81,1.72V33.29a13,13,0,0,1,1.26-6.12,12.11,12.11,0,0,1,23,5.12q.14,16.89,0,33.77a6.32,6.32,0,0,0,2.08,5c9.24,9.2,18.4,18.46,27.65,27.63a18.68,18.68,0,0,1,5.18,7.65Z" transform="translate(0 -12.64)"/><path class="cls-1" d="M29,161.07c0-8.48,0-17,0-25.44a7.61,7.61,0,0,1,2.4-5.8q34.07-34,68.08-68.05c3.4-3.4,6.68-3.34,10.1.07q34,33.95,67.94,67.9a7.93,7.93,0,0,1,2.48,6c-.06,16.48,0,33,0,49.45,0,12.35-9.21,21.84-21.61,22.09-10.88.21-21.71,0-32.56.09-2.13,0-2.2-1.17-2.2-2.72V157.22c0-3.17,0-3.18-3.07-3.18H88.36c-3,0-3,0-3,3.07v47c0,3.22,0,3.22-3.3,3.22-10.25,0-20.49,0-30.73,0-11-.07-19.9-7.3-22-17.77A23.35,23.35,0,0,1,29,184.7Q29,172.88,29,161.07Z" transform="translate(0 -12.64)"/></svg>