<svg id="Capa_1" data-name="Capa 1" xmlns="http://www.w3.org/2000/svg" viewBox="0 0 1024 768"><defs><style>.cls-1{fill:#fff;}</style></defs><title>home</title><path class="cls-1" d="M700.7,396.12c-1.66,4-3.61,7.74-7.34,10.31a17.86,17.86,0,0,1-21-.43,44.44,44.44,0,0,1-4.22-3.79q-56-55.95-112-111.94c-6.32-6.32-11.25-6.29-17.63.08l-2.12,2.11q-55.13,55.13-110.24,110.26c-4.35,4.35-9.18,7.33-15.6,6.84-7-.53-12.05-4-15-10.27s-2.2-12.23,1.66-17.84a26.89,26.89,0,0,1,3.17-3.58Q457.35,320.93,514.3,264c16.91-16.89,42.8-18.73,61.35-4.44a56.31,56.31,0,0,1,5.3,4.83q15.06,15,30.07,30c.69.69,1.42,1.35,2.67,2.53,0-5.93,0-11.26,0-16.58a19,19,0,0,1,1.85-9,17.82,17.82,0,0,1,33.82,7.52q.2,24.84,0,49.68a9.24,9.24,0,0,0,3.06,7.3C666,349.38,679.48,363,693.08,376.48c3.31,3.28,6.22,6.74,7.62,11.26Z"/><path class="cls-1" d="M436.42,468.27c0-12.47.06-24.94,0-37.41a11.24,11.24,0,0,1,3.52-8.54q50.1-50,100.14-100.08c5-5,9.82-4.92,14.85.1q50,49.94,99.93,99.87a11.64,11.64,0,0,1,3.64,8.79c-.08,24.24,0,48.49-.07,72.73-.06,18.17-13.55,32.12-31.78,32.49-16,.32-31.93,0-47.89.13-3.14,0-3.24-1.71-3.24-4q0-34.88,0-69.74c0-4.66,0-4.67-4.51-4.67H523.7c-4.37,0-4.38,0-4.38,4.51v69.14c0,4.73,0,4.73-4.85,4.73-15.07,0-30.14.07-45.2,0-16.19-.1-29.27-10.73-32.43-26.13a35.09,35.09,0,0,1-.4-7.16Q436.4,485.64,436.42,468.27Z"/></svg>