<svg id="Capa_1" data-name="Capa 1" xmlns="http://www.w3.org/2000/svg" viewBox="0 0 562.19 303.99"><defs><style>.cls-1{fill:#fff;}.cls-2{fill:#090609;}</style></defs><title>logo</title><path class="cls-1" d="M362.11,334.91l-27.84-.26q-34.35,0-53.61,16.65Q258,370.56,258,396.06a44.24,44.24,0,0,0,5.6,22q5.6,10,20,16.52t39,6.51q24.58,0,51.91-10.41t46.06-25Q442,389,442,376.54q0-6-6.24-7.41t-6.51-3.26q-.53-2.34,3.9-2.08a17.42,17.42,0,0,1,7.29,1.82q11.71,6.25,11.71,16.14,0,14.58-20.17,30.44t-50.87,25.25q-30.71,9.36-57.51,9.36t-43.46-5.2q-29.42-9.12-38.25-33.57a34.05,34.05,0,0,1-2.34-12,61.23,61.23,0,0,1,2.08-14.18q2.09-8.46,9.37-19.39t21.07-20.3a103.71,103.71,0,0,1,29.54-13.92,121.6,121.6,0,0,1,28.23-5.07,65,65,0,0,1-22.11-13q-9.12-8.32-9.11-18v-1.56q1.81-21.07,23.68-37.86t45.8-23.16q23.94-6.37,41.37-6.38a106.21,106.21,0,0,1,10.67.52q21.6,2.61,31,10.8t9.37,16.52q0,11.72-13.4,22.51t-32.4,15a37.21,37.21,0,0,1-7.68,1c-2,0-2.91-.52-2.73-1.56q1-3.13,8.85-4a32.18,32.18,0,0,0,15.09-6.11q14.57-10.67,16.65-27.59v-1.56q0-6.5-6.24-12-7.81-7.28-26.28-7.28a134.64,134.64,0,0,0-38.26,5.85,104.3,104.3,0,0,0-36.43,19.39q-19.77,16.14-19.78,35.13a22.85,22.85,0,0,0,4.56,13.79q4.54,6.24,13.27,9.24A182.35,182.35,0,0,0,353.26,318q20,4.17,20,10.93Q373.3,334.91,362.11,334.91Z" transform="translate(-238.79 -210.01)"/><path class="cls-1" d="M476.86,389.42q-2.42,6.12-4.06,11.71a39.49,39.49,0,0,0-1.65,11.19,19.28,19.28,0,0,0,3,10.41q3,4.83,9.61,4.82,10.82,0,21-12.62a262.11,262.11,0,0,0,21.61-32.14c1.6-2.43,3.11-3.38,4.51-2.86a1.88,1.88,0,0,1,.6,2.73q-.9,1.69-3.75,7.28t-4.21,7.81q-1.35,2.22-4.8,7.81a56,56,0,0,1-6,8.33q-2.55,2.73-6.9,7a37.22,37.22,0,0,1-8.26,6.38Q487.06,433,477.76,433t-14.41-3.51q-5.12-3.51-6.16-7.55a28.78,28.78,0,0,1-1.05-7.15c0-2.09.1-4.77.3-8.07a68.19,68.19,0,0,1,3.75-16.13q2.85-7.82,3.16-8.85A332.49,332.49,0,0,1,483,334.65q12.76-25.5,21.62-38.39t14-17.56q10.2-9.37,20.11-9.37,6.9,0,9.31,8.59a21.16,21.16,0,0,1,.3,3.9q0,8.85-7.2,22.38-25.83,49.71-61.55,78.07C479.36,383,478.46,385.35,476.86,389.42Zm27.94-49.57q13-20.55,19.13-35t6.12-19.65c0-3.46-.62-5.2-1.83-5.2q-2.6,0-9.89,10.28t-19.64,37q-12.36,26.68-20.17,46.71Q491.8,360.41,504.8,339.85Z" transform="translate(-238.79 -210.01)"/><path class="cls-1" d="M538.5,392.42a47.26,47.26,0,0,0-4,19.77q0,7.29,3.58,11.58t10.17,4.3q26.07,0,47.28-44.5c1.34-2.77,3-4,4.88-3.64a1.26,1.26,0,0,1,1.14,1.3q0,1-6.45,13.66a107.72,107.72,0,0,1-13,20.43Q567.43,433.53,546,433.53a29.23,29.23,0,0,1-19.49-6.76q-8-6.76-8-18.48t6.16-24.85A94.15,94.15,0,0,1,541.36,359a64.37,64.37,0,0,1,24.36-16.53,34.4,34.4,0,0,1,12.61-2.6A21.23,21.23,0,0,1,589.51,343c3.24,2.44,4.87,5.12,4.87,8.07q0,15.61-20.63,29.93-6.32,4.42-17.77,7.93T538.5,392.42Zm48.14-41.64q0-5.2-4.58-5.2-8,0-24.36,17.95A133.4,133.4,0,0,0,540.5,388q4.88,0,14.19-3.12a56,56,0,0,0,16.19-8.33Q586.63,364.31,586.64,350.78Z" transform="translate(-238.79 -210.01)"/><path class="cls-1" d="M695.71,379.41q-1.69-.78-3.41,2.86-24.42,45-38.91,45-5.4,0-5.39-6.77,0-17.17,34.93-73.38a9,9,0,0,0-3.12-.52q-7.11,0-22.44,7.67A139.46,139.46,0,0,0,631.1,371,218.62,218.62,0,0,0,606.81,395c12.86-23.57,22.93-36.2,28.75-44.4.11-.16,1.63-1.11,1.08-1.69-1.61-1.71-3-2.22-4.5-3.43a8.41,8.41,0,0,0-4.67-1.35c-4,0-6.17,2-8.45,4q-7.38,6.51-31.24,52Q575.42,424.1,570.61,433c0,.15.08.32.13.48a5.6,5.6,0,0,1,.49.36,33.89,33.89,0,0,1,6.9-.82,40.26,40.26,0,0,0,8.37-.91,7.31,7.31,0,0,0,3.84-3.25q19-34.35,39.48-51.53,13.63-11.7,18.46-11.71t4.83,2.74q0,2.73-3.13,7.41-12.78,18.74-15.62,27.07A45.4,45.4,0,0,0,631.52,417q0,5.85,2.84,9.24,5.4,7.29,15.77,7.28T670.86,423q10.36-10.53,25.42-38.38a6.27,6.27,0,0,0,1.14-3.12C697.42,380.62,696.85,379.93,695.71,379.41Z" transform="translate(-238.79 -210.01)"/><path class="cls-2" d="M695.71,379.41q-1.69-.78-3.41,2.86-24.42,45-38.91,45-5.4,0-5.39-6.77,0-17.17,34.93-73.38a9,9,0,0,0-3.12-.52q-7.11,0-22.44,7.67A139.46,139.46,0,0,0,631.1,371,218.62,218.62,0,0,0,606.81,395c12.86-23.57,22.93-36.2,28.75-44.4.11-.16,1.63-1.11,1.08-1.69-1.61-1.71-3-2.22-4.5-3.43a8.41,8.41,0,0,0-4.67-1.35c-4,0-6.17,2-8.45,4q-7.38,6.51-31.24,52Q575.42,424.1,570.61,433c0,.15.08.32.13.48a5.6,5.6,0,0,1,.49.36,33.89,33.89,0,0,1,6.9-.82,40.26,40.26,0,0,0,8.37-.91,7.31,7.31,0,0,0,3.84-3.25q19-34.35,39.48-51.53,13.63-11.7,18.46-11.71t4.83,2.74q0,2.73-3.13,7.41-12.78,18.74-15.62,27.07A45.4,45.4,0,0,0,631.52,417q0,5.85,2.84,9.24,5.4,7.29,15.77,7.28T670.86,423q10.36-10.53,25.42-38.38a6.27,6.27,0,0,0,1.14-3.12C697.42,380.62,696.85,379.93,695.71,379.41Z" transform="translate(-238.79 -210.01)"/><path class="cls-1" d="M695.71,379.41q-1.69-.78-3.41,2.86-24.42,45-38.91,45-5.4,0-5.39-6.77,0-17.17,34.93-73.38a9,9,0,0,0-3.12-.52q-7.11,0-22.44,7.67A139.46,139.46,0,0,0,631.1,371,218.62,218.62,0,0,0,606.81,395c12.86-23.57,22.93-36.2,28.75-44.4.11-.16,1.63-1.11,1.08-1.69-1.61-1.71-3-2.22-4.5-3.43a8.41,8.41,0,0,0-4.67-1.35c-4,0-6.17,2-8.45,4q-7.38,6.51-31.24,52Q575.42,424.1,570.61,433c0,.15.08.32.13.48a5.6,5.6,0,0,1,.49.36,33.89,33.89,0,0,1,6.9-.82,40.26,40.26,0,0,0,8.37-.91,7.31,7.31,0,0,0,3.84-3.25q19-34.35,39.48-51.53,13.63-11.7,18.46-11.71t4.83,2.74q0,2.73-3.13,7.41-12.78,18.74-15.62,27.07A45.4,45.4,0,0,0,631.52,417q0,5.85,2.84,9.24,5.4,7.29,15.77,7.28T670.86,423q10.36-10.53,25.42-38.38a6.27,6.27,0,0,0,1.14-3.12C697.42,380.62,696.85,379.93,695.71,379.41Z" transform="translate(-238.79 -210.01)"/><path class="cls-1" d="M767.54,383.18Q757.87,399.71,756,407.9a61.57,61.57,0,0,0-1.91,13.27q0,5.08,4.4,5.08,5.56,0,13.79-9.11,12-13.27,23.75-34.61c.78-1.56,1.66-2.43,2.64-2.6,1.56-.52,2.35,0,2.35,1.56a7.51,7.51,0,0,1-.88,3.12q-27,48.4-45.46,48.4-8.5,0-13.78-7.28c-1.77-2.61-2.65-6.07-2.65-10.41a54.75,54.75,0,0,1,2.94-15.88Q717.68,433,700.67,433a14.68,14.68,0,0,1-8.5-2.6q-8.8-5.46-8.8-18.74,0-25.5,24.93-51.78a66.38,66.38,0,0,1,34.61-19,46.85,46.85,0,0,1,10.56-1.3q13.49,0,22.87,8.33,2.92,2.86,1.76,5.46c-.78,1.74-2.45,2.44-5,2.09q-3.24-9.37-14.08-9.37-12.62,0-31.09,17.69a144.24,144.24,0,0,0-19.65,24.46q-11.44,16.92-11.44,27.07t7.33,10.15q17.59,0,46-47.89,5.57-9.61,9.39-13.14a13.69,13.69,0,0,1,9.67-3.51,55.37,55.37,0,0,1,6,.78,20.76,20.76,0,0,0,7.18.26Q777.22,366.65,767.54,383.18Z" transform="translate(-238.79 -210.01)"/><path class="cls-1" d="M265,474.91a12.89,12.89,0,0,1-.93,4.94,11.71,11.71,0,0,1-2.6,3.95,13.36,13.36,0,0,1-4.9,3.11,21,21,0,0,1-7.14,1h-5.33V502.9h-5.34V462.79h10.89a26.67,26.67,0,0,1,6.11.6,14.05,14.05,0,0,1,4.45,1.9,11,11,0,0,1,3.54,3.83A12,12,0,0,1,265,474.91Zm-5.55.13a8.23,8.23,0,0,0-.73-3.6,6,6,0,0,0-2.2-2.51,8.89,8.89,0,0,0-3-1.2,20.34,20.34,0,0,0-4.19-.36h-5.28v16h4.49a19.87,19.87,0,0,0,5.26-.58,7.37,7.37,0,0,0,3.28-1.85,7.67,7.67,0,0,0,1.8-2.72A9.24,9.24,0,0,0,259.48,475Z" transform="translate(-238.79 -210.01)"/><path class="cls-1" d="M276.78,502.9h-5.07V461h5.07Z" transform="translate(-238.79 -210.01)"/><path class="cls-1" d="M310.18,502.9h-5v-3.21L303.33,501a12.89,12.89,0,0,1-2.23,1.31,15.17,15.17,0,0,1-2.91,1,15.64,15.64,0,0,1-3.85.42,9.59,9.59,0,0,1-6.89-2.7,9,9,0,0,1-2.83-6.87,9.56,9.56,0,0,1,1.46-5.53,9.85,9.85,0,0,1,4.19-3.33,22.45,22.45,0,0,1,6.6-1.64q3.86-.44,8.27-.65v-.78a6.09,6.09,0,0,0-.6-2.86,4.45,4.45,0,0,0-1.74-1.78,7.18,7.18,0,0,0-2.59-.83,22.68,22.68,0,0,0-3.15-.22,21.35,21.35,0,0,0-4.44.53,35.22,35.22,0,0,0-5.07,1.52h-.27v-5.14c1-.27,2.42-.57,4.29-.89a31.62,31.62,0,0,1,5.52-.49,25.78,25.78,0,0,1,5.54.53,10.67,10.67,0,0,1,4.08,1.79,7.94,7.94,0,0,1,2.58,3.2,11.76,11.76,0,0,1,.89,4.88Zm-5-7.41v-8.38c-1.54.09-3.36.23-5.45.41a28.41,28.41,0,0,0-5,.78,8,8,0,0,0-3.53,1.93,5.53,5.53,0,0,0,.22,7.48,7.25,7.25,0,0,0,4.76,1.31,11.21,11.21,0,0,0,4.88-1A21.68,21.68,0,0,0,305.14,495.49Z" transform="translate(-238.79 -210.01)"/><path class="cls-1" d="M335.56,502.63a27.58,27.58,0,0,1-3.11.62,21.59,21.59,0,0,1-3,.24c-3.07,0-5.4-.82-7-2.48s-2.4-4.3-2.4-7.94v-16h-3.42v-4.26H320v-8.65h5.07v8.65h10.45v4.26H325.11v13.71c0,1.58,0,2.81.11,3.7A6,6,0,0,0,326,497a3.6,3.6,0,0,0,1.63,1.58,7.68,7.68,0,0,0,3.16.5,10,10,0,0,0,2.59-.36,19.82,19.82,0,0,0,1.94-.61h.27Z" transform="translate(-238.79 -210.01)"/><path class="cls-1" d="M366.86,488.38H344.69a12.8,12.8,0,0,0,.84,4.84,8.94,8.94,0,0,0,5.62,5.32,13.24,13.24,0,0,0,4.24.64,16.87,16.87,0,0,0,6.18-1.22,15.35,15.35,0,0,0,4.43-2.41h.27v5.52a40.75,40.75,0,0,1-5.22,1.8,21,21,0,0,1-5.61.73q-7.49,0-11.69-4.05T339.55,488q0-7.38,4-11.72a13.77,13.77,0,0,1,10.6-4.34q6.07,0,9.38,3.56t3.3,10.1Zm-4.93-3.88a8.92,8.92,0,0,0-2-6.17q-2-2.18-6-2.18a8.76,8.76,0,0,0-6.48,2.4,9.32,9.32,0,0,0-2.74,5.95Z" transform="translate(-238.79 -210.01)"/><path class="cls-1" d="M393.32,478.33h-.27a18.2,18.2,0,0,0-2.2-.39,22.68,22.68,0,0,0-2.51-.12,10.43,10.43,0,0,0-4.53,1,20.24,20.24,0,0,0-4.2,2.68V502.9h-5.07V472.81h5.07v4.44a24.76,24.76,0,0,1,5.32-3.43,11.63,11.63,0,0,1,4.7-1,17.29,17.29,0,0,1,1.91.07c.4,0,1,.13,1.78.25Z" transform="translate(-238.79 -210.01)"/><path class="cls-1" d="M408.78,457.75l-7.35,10.08h-4l4.83-10.08Zm-5.57,45.15h-5.07V472.81h5.07Z" transform="translate(-238.79 -210.01)"/><path class="cls-1" d="M436.61,502.9h-5v-3.21L429.76,501a12.89,12.89,0,0,1-2.23,1.31,15.17,15.17,0,0,1-2.91,1,15.64,15.64,0,0,1-3.85.42,9.63,9.63,0,0,1-6.9-2.7,9.07,9.07,0,0,1-2.82-6.87,9.56,9.56,0,0,1,1.46-5.53,9.85,9.85,0,0,1,4.19-3.33,22.45,22.45,0,0,1,6.6-1.64q3.85-.44,8.27-.65v-.78a6.09,6.09,0,0,0-.6-2.86,4.51,4.51,0,0,0-1.74-1.78,7.18,7.18,0,0,0-2.59-.83,22.68,22.68,0,0,0-3.15-.22,21.35,21.35,0,0,0-4.44.53A34.84,34.84,0,0,0,414,478.6h-.27v-5.14c1-.27,2.42-.57,4.29-.89a31.54,31.54,0,0,1,5.52-.49,25.78,25.78,0,0,1,5.54.53,10.67,10.67,0,0,1,4.08,1.79,7.94,7.94,0,0,1,2.58,3.2,11.76,11.76,0,0,1,.89,4.88Zm-5-7.41v-8.38c-1.54.09-3.36.23-5.45.41a28.41,28.41,0,0,0-5,.78,8,8,0,0,0-3.53,1.93,5.54,5.54,0,0,0,.21,7.48A7.3,7.3,0,0,0,422.6,499a11.21,11.21,0,0,0,4.88-1A21.68,21.68,0,0,0,431.57,495.49Z" transform="translate(-238.79 -210.01)"/><path class="cls-1" d="M491.78,472.81,474.22,514h-5.41l5.6-12.55-12-28.64h5.5l9.24,22.3,9.32-22.3Z" transform="translate(-238.79 -210.01)"/><path class="cls-1" d="M549.84,502.9h-5.68l-3.94-11.18H522.87l-3.93,11.18h-5.41l14.6-40.11h7.11Zm-11.26-15.76-7-19.69-7.06,19.69Z" transform="translate(-238.79 -210.01)"/><path class="cls-1" d="M574.3,478.33H574a18,18,0,0,0-2.19-.39,22.88,22.88,0,0,0-2.52-.12,10.49,10.49,0,0,0-4.53,1,20.78,20.78,0,0,0-4.2,2.68V502.9h-5.07V472.81h5.07v4.44a24.76,24.76,0,0,1,5.32-3.43,11.66,11.66,0,0,1,4.7-1,17.29,17.29,0,0,1,1.91.07c.4,0,1,.13,1.78.25Z" transform="translate(-238.79 -210.01)"/><path class="cls-1" d="M594.7,502.63a27.77,27.77,0,0,1-3.12.62,21.45,21.45,0,0,1-3,.24c-3.07,0-5.41-.82-7-2.48s-2.4-4.3-2.4-7.94v-16h-3.42v-4.26h3.42v-8.65h5.06v8.65H594.7v4.26H584.24v13.71c0,1.58,0,2.81.11,3.7a6,6,0,0,0,.75,2.49,3.63,3.63,0,0,0,1.64,1.58,7.65,7.65,0,0,0,3.16.5,10,10,0,0,0,2.59-.36c.89-.25,1.54-.45,1.94-.61h.27Z" transform="translate(-238.79 -210.01)"/><path class="cls-1" d="M626,488.38H603.83a13,13,0,0,0,.83,4.84,8.94,8.94,0,0,0,5.62,5.32,13.28,13.28,0,0,0,4.24.64,17,17,0,0,0,6.19-1.22,15.35,15.35,0,0,0,4.43-2.41h.27v5.52a40.88,40.88,0,0,1-5.23,1.8,21,21,0,0,1-5.6.73q-7.5,0-11.69-4.05T598.68,488q0-7.38,4-11.72a13.79,13.79,0,0,1,10.6-4.34q6.09,0,9.39,3.56t3.3,10.1Zm-4.93-3.88a9,9,0,0,0-2-6.17c-1.32-1.45-3.32-2.18-6-2.18a8.79,8.79,0,0,0-6.48,2.4,9.26,9.26,0,0,0-2.73,5.95Z" transform="translate(-238.79 -210.01)"/><path class="cls-1" d="M655.18,494.23a8.2,8.2,0,0,1-3.41,6.76c-2.27,1.76-5.38,2.64-9.31,2.64a22.29,22.29,0,0,1-6.13-.8,27.77,27.77,0,0,1-4.67-1.73v-5.69h.27a20.24,20.24,0,0,0,5.33,2.87,16.48,16.48,0,0,0,5.63,1.06,10.59,10.59,0,0,0,5.23-1.07,3.64,3.64,0,0,0,1.88-3.4,3.43,3.43,0,0,0-1-2.69,9.19,9.19,0,0,0-3.93-1.56c-.72-.17-1.66-.35-2.82-.57s-2.21-.45-3.16-.7a10.55,10.55,0,0,1-5.62-3.08,7.65,7.65,0,0,1-1.66-5,8.17,8.17,0,0,1,.77-3.5,8.41,8.41,0,0,1,2.33-2.94,11.32,11.32,0,0,1,3.84-2,17.25,17.25,0,0,1,5.21-.74,23.42,23.42,0,0,1,5.46.66,21,21,0,0,1,4.59,1.6v5.42h-.27a17.92,17.92,0,0,0-4.71-2.41,16.17,16.17,0,0,0-5.45-1,9.47,9.47,0,0,0-4.68,1.07,3.73,3.73,0,0,0-.76,6,9,9,0,0,0,3.67,1.53c.93.22,2,.43,3.14.65s2.12.41,2.89.59a10.73,10.73,0,0,1,5.44,2.78A7.28,7.28,0,0,1,655.18,494.23Z" transform="translate(-238.79 -210.01)"/><path class="cls-1" d="M685.81,502.9h-5v-3.21L679,501a12.47,12.47,0,0,1-2.22,1.31,14.88,14.88,0,0,1-6.76,1.46,9.6,9.6,0,0,1-6.9-2.7,9,9,0,0,1-2.83-6.87,9.49,9.49,0,0,1,1.47-5.53,9.79,9.79,0,0,1,4.19-3.33,22.29,22.29,0,0,1,6.6-1.64c2.57-.29,5.32-.51,8.27-.65v-.78a6,6,0,0,0-.61-2.86,4.38,4.38,0,0,0-1.74-1.78,7.12,7.12,0,0,0-2.58-.83,22.91,22.91,0,0,0-3.15-.22,21.52,21.52,0,0,0-4.45.53,35.1,35.1,0,0,0-5.06,1.52h-.27v-5.14c1-.27,2.41-.57,4.28-.89a31.71,31.71,0,0,1,5.52-.49,25.71,25.71,0,0,1,5.54.53,10.67,10.67,0,0,1,4.08,1.79,8,8,0,0,1,2.59,3.2,11.92,11.92,0,0,1,.89,4.88Zm-5-7.41v-8.38c-1.55.09-3.36.23-5.46.41a28.41,28.41,0,0,0-5,.78,8.09,8.09,0,0,0-3.53,1.93,5.56,5.56,0,0,0,.22,7.48A7.26,7.26,0,0,0,671.8,499a11.17,11.17,0,0,0,4.87-1A21.76,21.76,0,0,0,680.77,495.49Z" transform="translate(-238.79 -210.01)"/><path class="cls-1" d="M720.72,502.9h-5.06V485.77a28.21,28.21,0,0,0-.25-3.9,6.94,6.94,0,0,0-.89-2.84,4.05,4.05,0,0,0-1.94-1.68,8.21,8.21,0,0,0-3.28-.55,10.54,10.54,0,0,0-4.34,1,22.13,22.13,0,0,0-4.34,2.61V502.9h-5.06V472.81h5.06v3.34a20.41,20.41,0,0,1,4.91-3.07,12.8,12.8,0,0,1,5.2-1.11c3.25,0,5.72,1,7.43,2.94s2.56,4.78,2.56,8.46Z" transform="translate(-238.79 -210.01)"/><path class="cls-1" d="M741.17,457.75l-7.36,10.08h-4l4.82-10.08Zm-5.58,45.15h-5.06V472.81h5.06Z" transform="translate(-238.79 -210.01)"/><path class="cls-1" d="M769,502.9h-5v-3.21L762.14,501a12.47,12.47,0,0,1-2.22,1.31,14.88,14.88,0,0,1-6.76,1.46,9.62,9.62,0,0,1-6.9-2.7,9,9,0,0,1-2.83-6.87,9.49,9.49,0,0,1,1.47-5.53,9.79,9.79,0,0,1,4.19-3.33,22.29,22.29,0,0,1,6.6-1.64c2.57-.29,5.32-.51,8.27-.65v-.78a6,6,0,0,0-.61-2.86,4.42,4.42,0,0,0-1.73-1.78,7.18,7.18,0,0,0-2.59-.83,22.91,22.91,0,0,0-3.15-.22,21.52,21.52,0,0,0-4.45.53,35.1,35.1,0,0,0-5.06,1.52h-.27v-5.14c1-.27,2.41-.57,4.28-.89a31.71,31.71,0,0,1,5.52-.49,25.71,25.71,0,0,1,5.54.53,10.67,10.67,0,0,1,4.08,1.79,8,8,0,0,1,2.59,3.2,11.92,11.92,0,0,1,.89,4.88Zm-5-7.41v-8.38c-1.55.09-3.36.23-5.46.41a28.41,28.41,0,0,0-5,.78,8.09,8.09,0,0,0-3.53,1.93,5.56,5.56,0,0,0,.22,7.48A7.26,7.26,0,0,0,755,499a11.17,11.17,0,0,0,4.87-1A21.76,21.76,0,0,0,764,495.49Z" transform="translate(-238.79 -210.01)"/><path class="cls-1" d="M800.25,494.23a8.2,8.2,0,0,1-3.41,6.76c-2.27,1.76-5.38,2.64-9.31,2.64a22.35,22.35,0,0,1-6.13-.8,28.11,28.11,0,0,1-4.67-1.73v-5.69H777a20.56,20.56,0,0,0,5.33,2.87,16.52,16.52,0,0,0,5.63,1.06,10.59,10.59,0,0,0,5.23-1.07,3.63,3.63,0,0,0,1.88-3.4,3.43,3.43,0,0,0-1-2.69,9.19,9.19,0,0,0-3.93-1.56c-.72-.17-1.66-.35-2.82-.57s-2.21-.45-3.16-.7a10.59,10.59,0,0,1-5.62-3.08,7.71,7.71,0,0,1-1.66-5,8.17,8.17,0,0,1,.77-3.5,8.41,8.41,0,0,1,2.33-2.94,11.42,11.42,0,0,1,3.84-2,17.25,17.25,0,0,1,5.21-.74,23.42,23.42,0,0,1,5.46.66,21,21,0,0,1,4.59,1.6v5.42h-.27a17.92,17.92,0,0,0-4.71-2.41,16.11,16.11,0,0,0-5.44-1,9.51,9.51,0,0,0-4.69,1.07,3.74,3.74,0,0,0-.75,6,8.9,8.9,0,0,0,3.66,1.53c.93.22,2,.43,3.14.65s2.12.41,2.89.59a10.77,10.77,0,0,1,5.45,2.78A7.31,7.31,0,0,1,800.25,494.23Z" transform="translate(-238.79 -210.01)"/><path class="cls-1" d="M566.53,301.45c2.09,3.76,5.37,6.86,8.31,10.5A67,67,0,0,0,556.63,325h43.46c13.87-7.18,45.28-7,63.51-4.46a9.86,9.86,0,0,1,.78-2.56c-18.84-9.85-52.8-28.25-52.58-42.14,0-2.7.65-3.86,3.63-4.08,13.11-.92,39.08,26.4,51.76,42.83a8.2,8.2,0,0,1,3.37-1.36C666.15,292.38,660.32,253,670,244c2.2-2,3.47-1.66,5.46.15,10.3,9.39,4,48.39-.63,69.24a8.07,8.07,0,0,1,3.1,1.54c12.85-16.69,40.21-45.54,53.43-44.6,3,.21,3.58,1.38,3.63,4.07.22,14-35.52,33.74-54.53,43.81a9.74,9.74,0,0,1,.73,2.43c18.4-2.68,51.3-2.91,65.55,4.36h42.07l-14.47-12.26h0l-.25-.21.78-1c.23-.27.47-.56.73-.85a68.15,68.15,0,0,0,13-22.18c.89-2.43.37-3.82-1.94-4.62-6.55-2.28-13-4.75-19.7-6.66-3.42-1-7.14-.93-10-1.26,1-8.33,2.22-16.39,2.72-24.49.38-6.28-.46-7-6.64-6.74-7.24.3-14.45,1.16-22.12,1.82A64.76,64.76,0,0,0,722.9,216c-11.66,3-21.83,8.48-30.26,17.16a9.59,9.59,0,0,1-1-1.26,68.55,68.55,0,0,0-16.1-20.5c-1.81-1.6-2.86-2.07-4.9-.26a73.14,73.14,0,0,0-14.66,17.48,19.82,19.82,0,0,1-1.44,1.84c-7.2-7.38-15.71-12.16-25-15.72-2.07-.79-3.35-.64-4.16,1.54-2.08,5.57-4.6,11-6.18,16.73-1.32,4.8-1.55,9.9-2.16,14.13-8-.85-15.88-2-23.76-2.41-7.08-.37-7.48.11-7.19,7.14.25,6,1,12,1.59,18l.24,2.48c-.58.05-1.45.17-2.32.21a67.42,67.42,0,0,0-26.12,6.83c-.89.42-2,2.21-1.77,2.82A208.15,208.15,0,0,0,566.53,301.45Zm182.81-13.88a5,5,0,0,1,4.37-2.22,39.73,39.73,0,0,1,17.8,4.66c1.85.93,2.74,2,1.71,3.81-2.49,4.44-5,8.87-7.76,13.17-.15.24-.3.49-.46.73a4,4,0,0,1-3.39,1.23c-12-2.65-23.73-1.74-35.43,1.42a5.28,5.28,0,0,1-1.32.13,3.85,3.85,0,0,1-.85-.21c5.33-4,10.74-7.66,15.6-11.92C743.24,295.2,746.26,291.31,749.34,287.57ZM696,246.93c-.17-2.89-.16-5.27,2.56-6.81,4.87-2.76,9.74-5.52,14.7-8.12,1.81-1,3.44-.56,4.06,1.74,1.37,5.09,2.94,10.13,4,15.28a4.86,4.86,0,0,1-1.94,4c-9.6,6-16.66,14.42-22.65,23.84-.71,1.11-1.44,2.21-2.2,3.3-.09.14-.39.14-.82.27.86-4.74,2.14-9.35,2.42-14A162.16,162.16,0,0,0,696,246.93ZM631.6,231.46c.44-.76,2.4-1.48,3.06-1.12,5.1,2.79,10.08,5.81,15,8.91a2.91,2.91,0,0,1,.93,2.5c-3.11,12.72-1.73,25.24,1.41,37.71a8.41,8.41,0,0,1-.08,1.55c-2.51-3.59-4.71-6.71-6.88-9.86a69.33,69.33,0,0,0-16.47-16.71,6,6,0,0,1-2.17-4.33A38.27,38.27,0,0,1,631.6,231.46Zm-57.79,55.3c5.4-2.64,11-4.62,17.15-4.47a3.63,3.63,0,0,1,2.64,1.41c6.56,10.79,15.91,18.56,26.53,25,.54.33,1,.74,1.53,1.11l-.31.73c-2.56-.51-5.13-1-7.69-1.54a70.49,70.49,0,0,0-26.69-.68,4.77,4.77,0,0,1-3.51-1.16,37,37,0,0,1-10.55-18.1A2.61,2.61,0,0,1,573.81,286.76Z" transform="translate(-238.79 -210.01)"/><path class="cls-1" d="M681,325h1.17l-1.07-.36C681.1,324.76,681.06,324.88,681,325Z" transform="translate(-238.79 -210.01)"/></svg>