<svg id="Capa_1" data-name="Capa 1" xmlns="http://www.w3.org/2000/svg" viewBox="0 0 1024 768"><defs><style>.cls-1{fill:#fff;}</style></defs><title>preguntas</title><path class="cls-1" d="M448,402.67V384.92c.47-.11.4-.49.44-.82.4-2.93.7-5.87,1.22-8.78C454.75,347,468.86,324,492,306.9c24.68-18.26,52.5-24.77,82.79-19.62,26.45,4.5,48.25,17.42,65.17,38.14C658.05,347.64,666,373.27,664,401.93a101.32,101.32,0,0,1-13.35,44.43c-17.79,30.66-44.21,48.95-79.31,54.55-2.52.41-5.11.28-7.56,1.09H547.75c-.12-.45-.5-.4-.84-.42A104.16,104.16,0,0,1,533,499.46a108.47,108.47,0,0,1-83.82-90.11C448.82,407.12,448.94,404.8,448,402.67Zm190.19-8.76c.1-45-36.77-82-81.81-82.1s-82,36.7-82.16,81.76,36.83,82.15,81.92,82.21S638.1,438.94,638.19,393.91Z"/><path class="cls-1" d="M550.9,422.89c-3.17,0-6.34,0-9.51,0-1,0-1.36-.23-1.33-1.29a106.85,106.85,0,0,1,1.17-14.28c.85-5.26,4-8.52,8.22-11.09a98.61,98.61,0,0,1,16-7.48c9.46-3.62,12.9-9.9,12.43-20.1a40,40,0,0,0-.62-6.08c-.86-4.2-3-7.2-7.5-8-8.67-1.63-17.3-1.87-25.94.26-3.92,1-6.08,3.51-7.13,7.24a32.85,32.85,0,0,0-.86,10.68c.07,1.48-.15,2.09-1.87,2.06-5.91-.12-11.83,0-17.74-.06-.68,0-1.65.37-1.62-1,.17-7.32.19-14.62,2.54-21.7A20.27,20.27,0,0,1,532.35,338a100.81,100.81,0,0,1,46.41-.73c9.81,2.14,15.61,8.42,17.6,18.22a76,76,0,0,1,0,29.76c-1.18,6.14-5,10.22-10,13.42a119.29,119.29,0,0,1-12.75,6.49,32.38,32.38,0,0,0-5.59,3.36c-4.12,3.13-6.51,7.17-6.21,12.47.1,1.61-.4,2-2,1.95C556.82,422.79,553.86,422.89,550.9,422.89Z"/><path class="cls-1" d="M540.06,452.34c0-3.38,0-6.77,0-10.14,0-1.07.25-1.47,1.4-1.46q9.3.09,18.59,0c1.16,0,1.4.42,1.4,1.47q-.06,10,0,20.07c0,1.16-.27,1.59-1.52,1.58q-9.2-.09-18.38,0c-1.28,0-1.51-.47-1.49-1.6C540.1,459,540.06,455.64,540.06,452.34Z"/></svg>