<svg id="Capa_1" data-name="Capa 1" xmlns="http://www.w3.org/2000/svg" viewBox="0 0 208.62 208.62"><defs><style>.cls-1{fill:#fff;}</style></defs><title>quienes_Mesa de trabajo 1</title><path class="cls-1" d="M104.49,208.62A104.31,104.31,0,1,1,208.8,104.31v.07A104.44,104.44,0,0,1,104.49,208.62Zm0-188a83.71,83.71,0,1,0,83.71,83.78A83.71,83.71,0,0,0,104.49,20.6Z" transform="translate(-0.18)"/><path class="cls-1" d="M104.49,157.15a10.32,10.32,0,0,1-10.31-10.31h0V87.53a10.31,10.31,0,1,1,20.6-.88c0,.3,0,.59,0,.88V146.8a10.29,10.29,0,0,1-10.23,10.35Z" transform="translate(-0.18)"/><path class="cls-1" d="M105.6,73.49c19.38,0,19.42-30.13,0-30.13S86.2,73.49,105.6,73.49Z" transform="translate(-0.18)"/></svg>