<svg id="Capa_1" data-name="Capa 1" xmlns="http://www.w3.org/2000/svg" viewBox="0 0 1024 768"><defs><style>.cls-1{fill:#fff;}</style></defs><title>quienes</title><path class="cls-1" d="M555.13,424.52A56.56,56.56,0,1,1,611.69,368,56.63,56.63,0,0,1,555.13,424.52Zm0-101.95A45.39,45.39,0,1,0,600.52,368,45.43,45.43,0,0,0,555.13,322.57Z"/><path class="cls-1" d="M555.13,396.61a5.59,5.59,0,0,1-5.59-5.59V358.86a5.59,5.59,0,1,1,11.17,0V391A5.58,5.58,0,0,1,555.13,396.61Z"/><path class="cls-1" d="M555.73,351.25c10.51,0,10.53-16.34,0-16.34s-10.52,16.34,0,16.34Z"/></svg>